<svg id="visual" viewBox="0 0 540 960" width="540" height="960" xmlns="http://www.w3.org/2000/svg" xmlns:xlink="http://www.w3.org/1999/xlink" version="1.1"><rect x="0" y="0" width="540" height="960" fill="#D61355"></rect><path d="M0 730L10 713.7C20 697.3 40 664.7 60 658.3C80 652 100 672 120 686.2C140 700.3 160 708.7 180 717.5C200 726.3 220 735.7 240 730.5C260 725.3 280 705.7 300 686.8C320 668 340 650 360 654.2C380 658.3 400 684.7 420 694.2C440 703.7 460 696.3 480 697.3C500 698.3 520 707.7 530 712.3L540 717L540 961L530 961C520 961 500 961 480 961C460 961 440 961 420 961C400 961 380 961 360 961C340 961 320 961 300 961C280 961 260 961 240 961C220 961 200 961 180 961C160 961 140 961 120 961C100 961 80 961 60 961C40 961 20 961 10 961L0 961Z" fill="#6096B4" stroke-linecap="round" stroke-linejoin="miter"></path></svg>