<svg id="visual" viewBox="0 0 1366 768" width="1366" height="768" xmlns="http://www.w3.org/2000/svg" xmlns:xlink="http://www.w3.org/1999/xlink" version="1.1"><rect x="0" y="0" width="1366" height="768" fill="#D61355"></rect><path d="M0 592L17.5 611.2C35 630.3 70 668.7 105 687.7C140 706.7 175 706.3 210 664.3C245 622.3 280 538.7 315 523.3C350 508 385 561 420 564.5C455 568 490 522 525 519C560 516 595 556 630.2 550.2C665.3 544.3 700.7 492.7 735.8 493C771 493.3 806 545.7 841 554C876 562.3 911 526.7 946 541.8C981 557 1016 623 1051 644.8C1086 666.7 1121 644.3 1156 621.3C1191 598.3 1226 574.7 1261 567.7C1296 560.7 1331 570.3 1348.5 575.2L1366 580L1366 769L1348.5 769C1331 769 1296 769 1261 769C1226 769 1191 769 1156 769C1121 769 1086 769 1051 769C1016 769 981 769 946 769C911 769 876 769 841 769C806 769 771 769 735.8 769C700.7 769 665.3 769 630.2 769C595 769 560 769 525 769C490 769 455 769 420 769C385 769 350 769 315 769C280 769 245 769 210 769C175 769 140 769 105 769C70 769 35 769 17.5 769L0 769Z" fill="#6096B4" stroke-linecap="round" stroke-linejoin="miter"></path></svg>