<svg id="visual" viewBox="0 0 900 600" width="900" height="600" xmlns="http://www.w3.org/2000/svg" xmlns:xlink="http://www.w3.org/1999/xlink" version="1.1"><rect x="0" y="0" width="900" height="600" fill="#D61355"></rect><path d="M0 462L11.5 477.2C23 492.3 46 522.7 69 537.5C92 552.3 115 551.7 138.2 518.8C161.3 486 184.7 421 207.8 409C231 397 254 438 277 440.5C300 443 323 407 346 404.8C369 402.7 392 434.3 415.2 429.8C438.3 425.3 461.7 384.7 484.8 384.8C508 385 531 426 554 432.7C577 439.3 600 411.7 623 423.5C646 435.3 669 486.7 692.2 503.7C715.3 520.7 738.7 503.3 761.8 485.3C785 467.3 808 448.7 831 443.2C854 437.7 877 445.3 888.5 449.2L900 453L900 601L888.5 601C877 601 854 601 831 601C808 601 785 601 761.8 601C738.7 601 715.3 601 692.2 601C669 601 646 601 623 601C600 601 577 601 554 601C531 601 508 601 484.8 601C461.7 601 438.3 601 415.2 601C392 601 369 601 346 601C323 601 300 601 277 601C254 601 231 601 207.8 601C184.7 601 161.3 601 138.2 601C115 601 92 601 69 601C46 601 23 601 11.5 601L0 601Z" fill="#6096B4" stroke-linecap="round" stroke-linejoin="miter"></path></svg>